PathFileType	4	(X/Y/Z)	C:\Users\Basilio\Documents\Thesis Gigler\squatting_fais\c3dfiles\073\SJ_pre4\markers_experimental.trc
DataRate	CameraRate	NumFrames	NumMarkers	Units	OrigDataRate	OrigDataStartFrame	OrigNumFrames
200.000000	200.000000	4	61	mm	200.000000	162	1299
Frame#	Time	FHD			LBHD			RBHD			C7			T10			CLAV			LSHO			LUUPA			LMUPA			LDUPA			LLEP			LMEP			LRAD			LUL			LRFIN			RSHO			RUPA1			RMUPA			RDUPA			RLEP			RMEP			RRAD			RUL			RUFIN			LASI			RASI			USACR			LSACR			RSACR			LTHI1			LTHI2			LTHI3			LTHI4			LLFC			LMFC			LTIB1			LTIB2			LTIB3			LTIB4			LLMAL			LMMAL			LHEE			LMT1			LMT2			LMT5			RTHI			RTHI2			RTHI3			RTHI4			RLFC			RMFC			RTIB1			RTIB2			RTIB3			RTIB4			RLMAL			RMMAL			RHEE			RMT1			RMT2			RMT5			
		X1	Y1	Z1	X2	Y2	Z2	X3	Y3	Z3	X4	Y4	Z4	X5	Y5	Z5	X6	Y6	Z6	X7	Y7	Z7	X8	Y8	Z8	X9	Y9	Z9	X10	Y10	Z10	X11	Y11	Z11	X12	Y12	Z12	X13	Y13	Z13	X14	Y14	Z14	X15	Y15	Z15	X16	Y16	Z16	X17	Y17	Z17	X18	Y18	Z18	X19	Y19	Z19	X20	Y20	Z20	X21	Y21	Z21	X22	Y22	Z22	X23	Y23	Z23	X24	Y24	Z24	X25	Y25	Z25	X26	Y26	Z26	X27	Y27	Z27	X28	Y28	Z28	X29	Y29	Z29	X30	Y30	Z30	X31	Y31	Z31	X32	Y32	Z32	X33	Y33	Z33	X34	Y34	Z34	X35	Y35	Z35	X36	Y36	Z36	X37	Y37	Z37	X38	Y38	Z38	X39	Y39	Z39	X40	Y40	Z40	X41	Y41	Z41	X42	Y42	Z42	X43	Y43	Z43	X44	Y44	Z44	X45	Y45	Z45	X46	Y46	Z46	X47	Y47	Z47	X48	Y48	Z48	X49	Y49	Z49	X50	Y50	Z50	X51	Y51	Z51	X52	Y52	Z52	X53	Y53	Z53	X54	Y54	Z54	X55	Y55	Z55	X56	Y56	Z56	X57	Y57	Z57	X58	Y58	Z58	X59	Y59	Z59	X60	Y60	Z60	X61	Y61	Z61	

163	0.8100000000000001	-137.5797424316407	1561.065795898438	-900.833190917969	-262.4595031738282	1617.348388671875	-930.2556762695315	-297.4224853515626	1616.14306640625	-798.0686645507815	-389.2761230468751	1528.66015625	-860.011657714844	-490.1095275878907	1191.008544921875	-876.7549438476565	-287.6030578613282	1418.33740234375	-870.9613037109377	-322.8907470703126	1463.724975585938	-1040.710815429688	-418.9212341308595	1379.139038085938	-1154.753784179688	-402.0124511718751	1331.676635742188	-1159.399536132813	-453.9092102050782	1331.405517578125	-1193.235229492188	-494.8786621093751	1247.532104492188	-1239.790283203125	-561.6133422851564	1233.658325195313	-1190.692016601563	-416.0206909179689	1030.234619140625	-1106.994750976563	-389.1796875000001	1011.239135742188	-1173.1435546875	-375.4333801269532	1010.217712402344	-1066.177368164063	-292.5081176757813	1434.937377929688	-699.0470581054689	-371.0752868652344	1353.9072265625	-554.7986450195314	-358.8025512695313	1305.528442382813	-551.8665771484376	-402.975555419922	1310.017944335938	-510.7300720214845	-427.3312072753907	1229.917358398438	-467.6450805664064	-509.4817199707032	1226.281494140625	-512.7549438476564	-434.9556274414064	1018.399475097656	-630.8522949218751	-386.8086242675782	988.8444824218752	-579.6791992187501	-375.7810974121094	1012.776428222656	-677.5338745117189	-329.0953674316407	1026.797607421875	-1017.432800292969	-319.3877868652344	1010.163879394531	-763.4949951171876	-506.5098571777345	1083.004638671875	-873.0079345703127	-520.8689575195314	1055.193481445313	-900.6229248046877	-521.6799316406251	1052.262573242188	-844.9155273437502	-380.9918823242188	718.5068969726564	-1112.663452148438	-343.3918457031251	642.5355224609376	-1112.205322265625	-299.7669067382813	643.6631469726564	-1087.868041992188	-370.2465515136719	589.8622436523439	-1110.675170898438	-367.6914367675782	532.7125244140626	-1123.870361328125	-356.9852294921876	500.6528320312501	-990.2138671875002	-330.0608520507813	325.8379516601563	-1112.880004882813	-394.2572326660157	300.1701354980469	-1167.416625976563	-353.8355102539063	286.7318420410157	-1150.745849609375	-359.6170959472657	204.0942840576172	-1131.700805664063	-431.7518920898439	92.73805999755861	-1174.855712890625	-417.6968078613282	106.7978591918946	-1086.908325195313	-488.7688598632814	52.31400680541994	-1135.55078125	-262.7583923339844	58.7908401489258	-1105.688232421875	-262.0259094238282	63.66423797607423	-1144.10009765625	-298.3967590332032	42.87893676757813	-1197.6396484375	-428.4781494140626	795.8660888671877	-673.4005126953126	-399.1219482421876	736.6832885742189	-666.3301391601564	-365.5925598144532	734.5761108398439	-671.2782592773439	-435.4641113281251	661.4118652343751	-681.6358642578126	-427.783416748047	509.532440185547	-684.1386718750001	-422.1959533691407	485.3804321289064	-812.6348266601565	-378.8810119628907	342.0518493652344	-755.7190551757814	-402.6722717285157	265.2521972656251	-682.2748413085939	-376.9196777343751	261.4540710449219	-723.1613159179689	-390.4872131347657	212.8891143798829	-752.2680053710939	-438.9906616210939	84.71031951904298	-692.7439575195314	-424.7805786132814	101.2018585205078	-779.9298095703127	-500.3942260742189	42.98230361938477	-748.7695922851564	-270.6226196289063	55.65572357177736	-735.9434204101564	-275.0966186523438	54.37102127075197	-695.0250854492189	-319.6962280273438	33.54748153686524	-649.5966186523439	
164	0.8150000000000001	-137.4745788574219	1561.121215820313	-901.8693847656252	-262.3076171875001	1617.34130859375	-931.2435302734377	-297.3458557128907	1616.06689453125	-799.127868652344	-389.1363525390626	1528.57666015625	-860.8826904296877	-490.1943969726564	1190.95166015625	-877.4629516601565	-287.5526428222657	1418.1923828125	-872.0371093750002	-322.8668823242188	1463.92529296875	-1041.8388671875	-419.3543395996095	1378.93310546875	-1155.486206054688	-402.3601684570314	1331.480102539063	-1160.261352539063	-454.2378234863282	1331.18701171875	-1193.773071289063	-495.2863769531251	1247.2783203125	-1240.451904296875	-561.8737792968751	1233.346923828125	-1191.234252929688	-416.2944946289064	1030.048461914063	-1107.716552734375	-389.2196044921876	1011.061157226563	-1173.883666992188	-375.4949340820313	1010.099304199219	-1066.822631835938	-292.3388366699219	1434.875	-700.1003417968751	-370.7903442382813	1353.907348632813	-555.7564697265626	-358.5173950195313	1305.589233398438	-552.8038330078126	-402.6184692382814	1310.01708984375	-511.577850341797	-426.9842529296876	1230.008911132813	-468.4035949707032	-509.2293090820314	1226.392944335938	-513.5101928710939	-434.8062133789064	1018.385375976563	-631.4191894531251	-386.6723632812501	988.8706665039065	-580.3235473632814	-375.8042907714844	1012.781677246094	-678.2325439453126	-329.1424560546876	1026.61669921875	-1017.825378417969	-319.4071044921876	1010.173828125	-764.1961059570314	-506.5132446289064	1082.88720703125	-873.661560058594	-520.7672729492189	1055.076171875	-901.3220825195315	-521.7404785156251	1052.128295898438	-845.667419433594	-381.0587768554688	718.2585449218751	-1113.151611328125	-343.6188049316407	642.2620849609376	-1112.510009765625	-300.0228576660157	643.3716430664064	-1088.13037109375	-370.4272460937501	589.5988769531251	-1111.01953125	-368.0063476562501	532.4185180664064	-1124.138916015625	-357.5451965332032	500.4696655273439	-990.4548339843752	-329.9423828125001	325.6611633300782	-1113.114013671875	-393.986297607422	299.8244934082032	-1167.694091796875	-353.5700073242188	286.3924865722657	-1151.096557617188	-359.1910705566407	203.8536529541016	-1131.91552734375	-431.2060852050782	92.4133758544922	-1175.039672851563	-416.9797668457032	106.509262084961	-1087.065673828125	-488.141571044922	52.04854965209962	-1135.63525390625	-262.0606079101563	58.58350372314455	-1105.951293945313	-261.3805847167969	63.33620071411134	-1144.380126953125	-297.7865295410157	42.46245574951173	-1197.88623046875	-428.4920654296876	795.892517089844	-674.0104370117189	-399.0883789062501	736.7557983398439	-666.8909912109376	-365.5313110351563	734.6684570312501	-671.8325805664064	-435.3297729492189	661.4525146484376	-682.1469726562501	-427.6308593750001	509.5350341796876	-684.5758056640626	-421.8785095214845	485.2511291503907	-813.0737304687502	-378.7196655273438	342.0336303710938	-755.8858032226564	-402.617401123047	265.2785644531251	-682.4695434570314	-376.8067016601563	261.4166870117188	-723.4032592773439	-390.4255371093751	212.8597717285157	-752.3772583007814	-439.0013427734376	84.73091125488283	-692.7897338867189	-424.6878051757814	101.1649017333985	-780.0010375976565	-500.4111633300782	42.97472381591798	-748.7639770507814	-270.6214599609376	55.60413742065431	-735.9909057617189	-275.0787353515626	54.41855621337892	-694.9232788085939	-319.6962890625001	33.52828598022462	-649.5944824218751	
165	0.8200000000000001	-137.3236999511719	1561.1884765625	-903.0002441406252	-262.3290405273438	1617.22802734375	-932.339294433594	-297.2764282226563	1616.06005859375	-800.1777343750002	-388.9937744140626	1528.435546875	-861.9541625976565	-490.1052246093751	1190.91748046875	-878.2740478515627	-287.4577026367188	1418.06591796875	-873.0384521484377	-322.9460144042969	1463.714477539063	-1042.885986328125	-419.584930419922	1378.706298828125	-1156.405517578125	-402.5946044921876	1331.355834960938	-1161.042724609375	-454.5830078125001	1330.945922851563	-1194.660766601563	-495.6347961425782	1246.953735351563	-1241.076904296875	-562.0865478515626	1233.051025390625	-1191.780639648438	-416.3643798828126	1029.849487304688	-1108.379638671875	-389.2433471679689	1010.858276367188	-1174.447509765625	-375.5439453125001	1009.883483886719	-1067.482055664063	-292.0659790039063	1434.82373046875	-701.0476684570314	-370.3996276855469	1353.665283203125	-557.0812988281251	-358.2596740722657	1305.542602539063	-553.6462402343751	-402.3221740722657	1310.111083984375	-512.4261474609376	-426.7194824218751	1230.134765625	-469.1804809570314	-509.1292419433595	1226.548828125	-514.2226562500001	-434.8226623535157	1018.391479492188	-632.0236206054689	-386.5999755859376	988.8691406250002	-581.0713500976564	-375.6523132324219	1012.794494628906	-678.8466796875001	-329.0465393066407	1026.436645507813	-1018.495422363281	-319.4320373535157	1010.189880371094	-764.9694213867189	-506.6544799804689	1082.773681640625	-874.4570312500002	-520.7225952148439	1054.95068359375	-902.1411743164065	-521.8566284179689	1052.055541992188	-846.3916625976565	-381.2552795410157	718.0034179687501	-1113.647216796875	-343.8494873046876	641.9176635742189	-1112.925415039063	-300.3205871582032	643.0811767578126	-1088.445556640625	-370.6969604492188	589.2930908203126	-1111.365234375	-368.3210754394532	532.1173095703126	-1124.4033203125	-358.2031250000001	500.2449951171876	-990.7346801757815	-329.8630065917969	325.4872436523438	-1113.369140625	-393.8554077148439	299.4761352539063	-1168.003662109375	-353.3056640625001	286.1330261230469	-1151.292236328125	-358.8633422851563	203.5977478027344	-1132.245727539063	-430.7200317382814	92.0100555419922	-1175.21484375	-416.4003295898439	106.3056335449219	-1087.296508789063	-487.712371826172	51.96145248413087	-1135.84033203125	-261.5613403320313	58.40318298339845	-1106.216552734375	-260.9966735839844	62.97571182250978	-1144.665161132813	-297.3846435546876	42.05263137817384	-1198.124145507813	-428.495086669922	795.8914184570315	-674.6571044921876	-398.9995422363282	736.8068847656251	-667.5540161132814	-365.4907531738282	734.7522583007814	-672.4279174804689	-435.236541748047	661.4699096679689	-682.6568603515626	-427.5083618164064	509.5191345214845	-684.9908447265626	-421.5252380371095	485.0816955566407	-813.4139404296877	-378.4933166503907	341.9703063964844	-756.1284790039064	-402.5308532714845	265.2976684570313	-682.6625366210939	-376.6705627441407	261.4219360351563	-723.6003417968751	-390.345428466797	212.7779541015626	-752.5730590820314	-438.9694824218751	84.7390823364258	-692.8210449218751	-424.6685180664064	101.1020050048828	-780.060241699219	-500.3939208984376	42.98320007324219	-748.7685546875001	-270.6078186035157	55.57299423217775	-735.9909057617189	-275.0686950683594	54.44186401367189	-694.9049682617189	-319.6943664550782	33.55210113525391	-649.5761718750001	
166	0.8250000000000001	-136.8474731445313	1561.168579101563	-904.0832519531252	-262.3520507812501	1617.136596679688	-933.4390258789065	-297.1519165039063	1615.5478515625	-801.4802856445315	-388.9003295898439	1528.34814453125	-863.0820312500002	-489.9510498046876	1190.83544921875	-879.1569824218752	-287.3289794921876	1417.968994140625	-874.0728149414065	-322.9714660644532	1463.551879882813	-1043.955810546875	-419.8395385742189	1378.51611328125	-1157.26611328125	-402.6607971191407	1331.1474609375	-1161.9150390625	-454.8610229492189	1330.672607421875	-1195.504638671875	-495.9437255859376	1246.647827148438	-1241.888305664063	-562.2540893554689	1232.706176757813	-1192.454223632813	-416.276824951172	1029.610229492188	-1109.045166015625	-389.3555297851564	1010.558837890625	-1175.001098632813	-375.7580871582032	1009.665100097656	-1068.145141601563	-291.7761230468751	1434.755126953125	-701.9562377929689	-370.2149963378907	1353.967895507813	-557.5739135742189	-358.0100402832032	1305.628662109375	-554.6450805664064	-402.0230407714845	1310.201416015625	-513.4947509765626	-426.405242919922	1230.26513671875	-470.118621826172	-508.9697265625001	1226.726440429688	-514.9374389648439	-434.7906799316407	1018.414611816406	-632.8980102539064	-386.5055236816407	988.916442871094	-581.8246459960939	-375.5781555175782	1012.859252929688	-679.4929199218751	-328.9675598144532	1026.3173828125	-1019.419982910156	-319.4366149902344	1010.176940917969	-765.7629394531251	-506.6680603027345	1082.700927734375	-875.4048461914065	-520.6870117187501	1054.826538085938	-902.8477783203127	-521.8948364257814	1051.9443359375	-847.2025146484377	-381.3088989257813	717.7471923828126	-1114.1552734375	-343.9920043945313	641.5629272460939	-1113.371215820313	-300.6089172363282	642.7839965820314	-1088.650268554688	-370.9705200195313	588.9790649414064	-1111.754516601563	-368.5918273925782	531.7590332031251	-1124.723266601563	-358.7991943359376	499.9407043457032	-991.112243652344	-329.8936767578126	325.2236328125001	-1113.69873046875	-393.8491516113282	299.1376953125001	-1168.283081054688	-353.1867980957032	285.8558044433594	-1151.473999023438	-358.6594543457032	203.3582458496094	-1132.428466796875	-430.525115966797	91.65663909912111	-1175.416748046875	-416.0676574707032	106.1605682373047	-1087.530639648438	-487.5739135742189	51.89468383789064	-1136.025146484375	-261.3678894042969	58.200252532959	-1106.494018554688	-260.8350524902344	62.60821533203126	-1144.939697265625	-297.2490539550782	41.65254974365235	-1198.3671875	-428.4768066406251	795.9372558593752	-675.3020629882814	-398.9761352539064	736.8074951171876	-668.0979003906251	-365.4157409667969	734.8767700195314	-673.0025634765626	-435.0950622558595	661.4642333984376	-683.1452026367189	-427.2722167968751	509.5394592285157	-685.4393310546876	-421.1572265625001	485.0202941894532	-813.8057250976565	-378.3233642578126	341.8520812988282	-756.5025634765626	-402.4336853027345	265.3161926269532	-682.8181762695314	-376.5109252929688	261.3632812500001	-723.8383178710939	-390.1893615722657	212.7688140869141	-752.7807006835939	-438.9597473144532	84.74124145507814	-692.8894653320314	-424.685760498047	101.0569534301758	-780.1185302734377	-500.394256591797	42.9719467163086	-748.7730102539064	-270.5938720703126	55.62539672851564	-735.9702758789064	-275.1091613769532	54.36082458496095	-694.9779052734376	-319.7008056640626	33.53524398803712	-649.6324462890626	
